{
	"asset":{
		"generator":"Khronos glTF Blender I/O v4.0.44",
		"version":"2.0"
	},
	"scene":0,
	"scenes":[
		{
			"name":"Scene",
			"nodes":[
				0
			]
		}
	],
	"nodes":[
		{
			"mesh":0,
			"name":"minivan body_Body_0",
			"rotation":[
				-0.499090313911438,
				0.5009080767631531,
				0.5009080171585083,
				0.49909040331840515
			],
			"scale":[
				0.0008886757423169911,
				0.0008886755094863474,
				0.0008886756841093302
			],
			"translation":[
				0,
				0.03937796875834465,
				0
			]
		}
	],
	"materials":[
		{
			"name":"Body_2",
			"pbrMetallicRoughness":{
				"baseColorTexture":{
					"index":0
				},
				"metallicRoughnessTexture":{
					"index":1
				}
			}
		},
		{
			"doubleSided":true,
			"name":"Wheel_1",
			"pbrMetallicRoughness":{
				"baseColorTexture":{
					"index":2
				},
				"metallicRoughnessTexture":{
					"index":3
				}
			}
		},
		{
			"alphaMode":"BLEND",
			"doubleSided":true,
			"name":"Glass_2",
			"pbrMetallicRoughness":{
				"baseColorFactor":[
					0,
					0,
					0,
					0.8580411672592163
				],
				"metallicFactor":0,
				"roughnessFactor":0
			}
		},
		{
			"name":"Optics_2",
			"pbrMetallicRoughness":{
				"baseColorTexture":{
					"index":4
				},
				"metallicFactor":0,
				"roughnessFactor":0
			}
		}
	],
	"meshes":[
		{
			"name":"minivan body_Body_0",
			"primitives":[
				{
					"attributes":{
						"POSITION":0,
						"NORMAL":1,
						"TEXCOORD_0":2
					},
					"indices":3,
					"material":0
				},
				{
					"attributes":{
						"POSITION":4,
						"NORMAL":5,
						"TEXCOORD_0":6
					},
					"indices":7,
					"material":1
				},
				{
					"attributes":{
						"POSITION":8,
						"NORMAL":9,
						"TEXCOORD_0":10
					},
					"indices":11,
					"material":2
				},
				{
					"attributes":{
						"POSITION":12,
						"NORMAL":13,
						"TEXCOORD_0":14
					},
					"indices":15,
					"material":3
				}
			]
		}
	],
	"textures":[
		{
			"sampler":0,
			"source":0
		},
		{
			"sampler":0,
			"source":1
		},
		{
			"sampler":0,
			"source":2
		},
		{
			"sampler":0,
			"source":3
		},
		{
			"sampler":0,
			"source":4
		}
	],
	"images":[
		{
			"mimeType":"image/png",
			"name":"Body_2_baseColor",
			"uri":"Body_2_baseColor.png"
		},
		{
			"mimeType":"image/png",
			"name":"Body_2_metallicRoughness",
			"uri":"Body_2_metallicRoughness.png"
		},
		{
			"mimeType":"image/png",
			"name":"Wheel_1_baseColor",
			"uri":"Wheel_1_baseColor.png"
		},
		{
			"mimeType":"image/png",
			"name":"Wheel_1_metallicRoughness",
			"uri":"Wheel_1_metallicRoughness.png"
		},
		{
			"mimeType":"image/jpeg",
			"name":"Optics_baseColor",
			"uri":"Optics_baseColor.jpg"
		}
	],
	"accessors":[
		{
			"bufferView":0,
			"componentType":5126,
			"count":4921,
			"max":[
				1051.19287109375,
				2556.767578125,
				1978.4423828125
			],
			"min":[
				-1051.192626953125,
				-2629.6826171875,
				181.3486328125
			],
			"type":"VEC3"
		},
		{
			"bufferView":1,
			"componentType":5126,
			"count":4921,
			"type":"VEC3"
		},
		{
			"bufferView":2,
			"componentType":5126,
			"count":4921,
			"type":"VEC2"
		},
		{
			"bufferView":3,
			"componentType":5123,
			"count":13803,
			"type":"SCALAR"
		},
		{
			"bufferView":4,
			"componentType":5126,
			"count":2264,
			"max":[
				955.055419921875,
				1844.736083984375,
				710.4142456054688
			],
			"min":[
				-955.055419921875,
				-2066.863525390625,
				-5.235137939453125
			],
			"type":"VEC3"
		},
		{
			"bufferView":5,
			"componentType":5126,
			"count":2264,
			"type":"VEC3"
		},
		{
			"bufferView":6,
			"componentType":5126,
			"count":2264,
			"type":"VEC2"
		},
		{
			"bufferView":7,
			"componentType":5123,
			"count":7368,
			"type":"SCALAR"
		},
		{
			"bufferView":8,
			"componentType":5126,
			"count":200,
			"max":[
				858.2481079101562,
				2410.219970703125,
				1825.8865966796875
			],
			"min":[
				-859.9539794921875,
				-1762.2890625,
				1223.527099609375
			],
			"type":"VEC3"
		},
		{
			"bufferView":9,
			"componentType":5126,
			"count":200,
			"type":"VEC3"
		},
		{
			"bufferView":10,
			"componentType":5126,
			"count":200,
			"type":"VEC2"
		},
		{
			"bufferView":11,
			"componentType":5123,
			"count":591,
			"type":"SCALAR"
		},
		{
			"bufferView":12,
			"componentType":5126,
			"count":210,
			"max":[
				902.5625,
				2393.144287109375,
				1171.7667236328125
			],
			"min":[
				-902.562744140625,
				-2515.271728515625,
				316.01959228515625
			],
			"type":"VEC3"
		},
		{
			"bufferView":13,
			"componentType":5126,
			"count":210,
			"type":"VEC3"
		},
		{
			"bufferView":14,
			"componentType":5126,
			"count":210,
			"type":"VEC2"
		},
		{
			"bufferView":15,
			"componentType":5123,
			"count":588,
			"type":"SCALAR"
		}
	],
	"bufferViews":[
		{
			"buffer":0,
			"byteLength":59052,
			"byteOffset":0,
			"target":34962
		},
		{
			"buffer":0,
			"byteLength":59052,
			"byteOffset":59052,
			"target":34962
		},
		{
			"buffer":0,
			"byteLength":39368,
			"byteOffset":118104,
			"target":34962
		},
		{
			"buffer":0,
			"byteLength":27606,
			"byteOffset":157472,
			"target":34963
		},
		{
			"buffer":0,
			"byteLength":27168,
			"byteOffset":185080,
			"target":34962
		},
		{
			"buffer":0,
			"byteLength":27168,
			"byteOffset":212248,
			"target":34962
		},
		{
			"buffer":0,
			"byteLength":18112,
			"byteOffset":239416,
			"target":34962
		},
		{
			"buffer":0,
			"byteLength":14736,
			"byteOffset":257528,
			"target":34963
		},
		{
			"buffer":0,
			"byteLength":2400,
			"byteOffset":272264,
			"target":34962
		},
		{
			"buffer":0,
			"byteLength":2400,
			"byteOffset":274664,
			"target":34962
		},
		{
			"buffer":0,
			"byteLength":1600,
			"byteOffset":277064,
			"target":34962
		},
		{
			"buffer":0,
			"byteLength":1182,
			"byteOffset":278664,
			"target":34963
		},
		{
			"buffer":0,
			"byteLength":2520,
			"byteOffset":279848,
			"target":34962
		},
		{
			"buffer":0,
			"byteLength":2520,
			"byteOffset":282368,
			"target":34962
		},
		{
			"buffer":0,
			"byteLength":1680,
			"byteOffset":284888,
			"target":34962
		},
		{
			"buffer":0,
			"byteLength":1176,
			"byteOffset":286568,
			"target":34963
		}
	],
	"samplers":[
		{
			"magFilter":9729,
			"minFilter":9987
		}
	],
	"buffers":[
		{
			"byteLength":287744,
			"uri":"lg.bin"
		}
	]
}
