{
	"asset":{
		"generator":"Khronos glTF Blender I/O v4.0.44",
		"version":"2.0"
	},
	"scene":0,
	"scenes":[
		{
			"name":"Scene",
			"nodes":[
				0
			]
		}
	],
	"nodes":[
		{
			"mesh":0,
			"name":"Compact Body_Body_0",
			"rotation":[
				-0.4988280236721039,
				0.5011692643165588,
				0.5011694431304932,
				0.49882790446281433
			],
			"scale":[
				0.0008886755094863474,
				0.0008886756841093302,
				0.0008886757423169911
			]
		}
	],
	"materials":[
		{
			"name":"Body",
			"pbrMetallicRoughness":{
				"baseColorTexture":{
					"index":0
				},
				"metallicRoughnessTexture":{
					"index":1
				}
			}
		},
		{
			"name":"Wheel",
			"pbrMetallicRoughness":{
				"baseColorTexture":{
					"index":2
				},
				"metallicRoughnessTexture":{
					"index":3
				}
			}
		},
		{
			"alphaMode":"BLEND",
			"doubleSided":true,
			"name":"Glass",
			"pbrMetallicRoughness":{
				"baseColorFactor":[
					0,
					0,
					0,
					0.5775533318519592
				],
				"metallicFactor":0,
				"roughnessFactor":0
			}
		},
		{
			"name":"Optics",
			"pbrMetallicRoughness":{
				"baseColorTexture":{
					"index":4
				},
				"metallicFactor":0,
				"roughnessFactor":0
			}
		}
	],
	"meshes":[
		{
			"name":"Compact Body_Body_0",
			"primitives":[
				{
					"attributes":{
						"POSITION":0,
						"NORMAL":1,
						"TEXCOORD_0":2
					},
					"indices":3,
					"material":0
				},
				{
					"attributes":{
						"POSITION":4,
						"NORMAL":5,
						"TEXCOORD_0":6
					},
					"indices":7,
					"material":1
				},
				{
					"attributes":{
						"POSITION":8,
						"NORMAL":9,
						"TEXCOORD_0":10
					},
					"indices":11,
					"material":2
				},
				{
					"attributes":{
						"POSITION":12,
						"NORMAL":13,
						"TEXCOORD_0":14
					},
					"indices":15,
					"material":3
				}
			]
		}
	],
	"textures":[
		{
			"sampler":0,
			"source":0
		},
		{
			"sampler":0,
			"source":1
		},
		{
			"sampler":0,
			"source":2
		},
		{
			"sampler":0,
			"source":3
		},
		{
			"sampler":0,
			"source":4
		}
	],
	"images":[
		{
			"mimeType":"image/png",
			"name":"Body_baseColor",
			"uri":"Body_baseColor.png"
		},
		{
			"mimeType":"image/png",
			"name":"Body_metallicRoughness",
			"uri":"Body_metallicRoughness.png"
		},
		{
			"mimeType":"image/png",
			"name":"Wheel_baseColor",
			"uri":"Wheel_baseColor.png"
		},
		{
			"mimeType":"image/png",
			"name":"Wheel_metallicRoughness",
			"uri":"Wheel_metallicRoughness.png"
		},
		{
			"mimeType":"image/jpeg",
			"name":"Optics_baseColor",
			"uri":"Optics_baseColor.jpg"
		}
	],
	"accessors":[
		{
			"bufferView":0,
			"componentType":5126,
			"count":4873,
			"max":[
				904.3771362304688,
				1827.4423828125,
				1472.8458251953125
			],
			"min":[
				-904.3767700195312,
				-1837.3558349609375,
				123.58567810058594
			],
			"type":"VEC3"
		},
		{
			"bufferView":1,
			"componentType":5126,
			"count":4873,
			"type":"VEC3"
		},
		{
			"bufferView":2,
			"componentType":5126,
			"count":4873,
			"type":"VEC2"
		},
		{
			"bufferView":3,
			"componentType":5123,
			"count":13893,
			"type":"SCALAR"
		},
		{
			"bufferView":4,
			"componentType":5126,
			"count":1868,
			"max":[
				748.970458984375,
				1518.7977294921875,
				539.389404296875
			],
			"min":[
				-748.968994140625,
				-1371.4324951171875,
				-7.074676513671875
			],
			"type":"VEC3"
		},
		{
			"bufferView":5,
			"componentType":5126,
			"count":1868,
			"type":"VEC3"
		},
		{
			"bufferView":6,
			"componentType":5126,
			"count":1868,
			"type":"VEC2"
		},
		{
			"bufferView":7,
			"componentType":5123,
			"count":6468,
			"type":"SCALAR"
		},
		{
			"bufferView":8,
			"componentType":5126,
			"count":191,
			"max":[
				643.115966796875,
				1668.2789306640625,
				1371.740966796875
			],
			"min":[
				-643.11572265625,
				-1751.4119873046875,
				539.9501953125
			],
			"type":"VEC3"
		},
		{
			"bufferView":9,
			"componentType":5126,
			"count":191,
			"type":"VEC3"
		},
		{
			"bufferView":10,
			"componentType":5126,
			"count":191,
			"type":"VEC2"
		},
		{
			"bufferView":11,
			"componentType":5123,
			"count":672,
			"type":"SCALAR"
		},
		{
			"bufferView":12,
			"componentType":5126,
			"count":284,
			"max":[
				698.8815307617188,
				1693.1236572265625,
				929.8095703125
			],
			"min":[
				-698.8812866210938,
				-1563.0325927734375,
				598.073974609375
			],
			"type":"VEC3"
		},
		{
			"bufferView":13,
			"componentType":5126,
			"count":284,
			"type":"VEC3"
		},
		{
			"bufferView":14,
			"componentType":5126,
			"count":284,
			"type":"VEC2"
		},
		{
			"bufferView":15,
			"componentType":5123,
			"count":738,
			"type":"SCALAR"
		}
	],
	"bufferViews":[
		{
			"buffer":0,
			"byteLength":58476,
			"byteOffset":0,
			"target":34962
		},
		{
			"buffer":0,
			"byteLength":58476,
			"byteOffset":58476,
			"target":34962
		},
		{
			"buffer":0,
			"byteLength":38984,
			"byteOffset":116952,
			"target":34962
		},
		{
			"buffer":0,
			"byteLength":27786,
			"byteOffset":155936,
			"target":34963
		},
		{
			"buffer":0,
			"byteLength":22416,
			"byteOffset":183724,
			"target":34962
		},
		{
			"buffer":0,
			"byteLength":22416,
			"byteOffset":206140,
			"target":34962
		},
		{
			"buffer":0,
			"byteLength":14944,
			"byteOffset":228556,
			"target":34962
		},
		{
			"buffer":0,
			"byteLength":12936,
			"byteOffset":243500,
			"target":34963
		},
		{
			"buffer":0,
			"byteLength":2292,
			"byteOffset":256436,
			"target":34962
		},
		{
			"buffer":0,
			"byteLength":2292,
			"byteOffset":258728,
			"target":34962
		},
		{
			"buffer":0,
			"byteLength":1528,
			"byteOffset":261020,
			"target":34962
		},
		{
			"buffer":0,
			"byteLength":1344,
			"byteOffset":262548,
			"target":34963
		},
		{
			"buffer":0,
			"byteLength":3408,
			"byteOffset":263892,
			"target":34962
		},
		{
			"buffer":0,
			"byteLength":3408,
			"byteOffset":267300,
			"target":34962
		},
		{
			"buffer":0,
			"byteLength":2272,
			"byteOffset":270708,
			"target":34962
		},
		{
			"buffer":0,
			"byteLength":1476,
			"byteOffset":272980,
			"target":34963
		}
	],
	"samplers":[
		{
			"magFilter":9729,
			"minFilter":9987
		}
	],
	"buffers":[
		{
			"byteLength":274456,
			"uri":"sm.bin"
		}
	]
}
