{
	"asset":{
		"generator":"Khronos glTF Blender I/O v4.0.44",
		"version":"2.0"
	},
	"scene":0,
	"scenes":[
		{
			"name":"Scene",
			"nodes":[
				0
			]
		}
	],
	"nodes":[
		{
			"mesh":0,
			"name":"SUV Body_Glass_0",
			"rotation":[
				-0.7032420039176941,
				0.0078074694611132145,
				0.007127456832677126,
				0.7108720541000366
			],
			"scale":[
				0.0008886757423169911,
				0.0008886755676940084,
				0.0008886757423169911
			],
			"translation":[
				0,
				-0.750052809715271,
				0
			]
		}
	],
	"materials":[
		{
			"alphaMode":"BLEND",
			"doubleSided":true,
			"name":"Glass_7",
			"pbrMetallicRoughness":{
				"baseColorFactor":[
					0,
					0,
					0,
					0.7056021094322205
				],
				"metallicFactor":0,
				"roughnessFactor":0
			}
		},
		{
			"name":"Wheel_6",
			"pbrMetallicRoughness":{
				"baseColorTexture":{
					"index":0
				},
				"metallicRoughnessTexture":{
					"index":1
				}
			}
		},
		{
			"name":"Body_7",
			"pbrMetallicRoughness":{
				"baseColorTexture":{
					"index":2
				},
				"metallicRoughnessTexture":{
					"index":3
				}
			}
		},
		{
			"name":"Optics_7",
			"pbrMetallicRoughness":{
				"baseColorTexture":{
					"index":4
				},
				"metallicFactor":0,
				"roughnessFactor":0
			}
		}
	],
	"meshes":[
		{
			"name":"SUV Body_Glass_0",
			"primitives":[
				{
					"attributes":{
						"POSITION":0,
						"NORMAL":1,
						"TEXCOORD_0":2
					},
					"indices":3,
					"material":0
				},
				{
					"attributes":{
						"POSITION":4,
						"NORMAL":5,
						"TEXCOORD_0":6
					},
					"indices":7,
					"material":1
				},
				{
					"attributes":{
						"POSITION":8,
						"NORMAL":9,
						"TEXCOORD_0":10
					},
					"indices":11,
					"material":2
				},
				{
					"attributes":{
						"POSITION":12,
						"NORMAL":13,
						"TEXCOORD_0":14
					},
					"indices":15,
					"material":3
				}
			]
		}
	],
	"textures":[
		{
			"sampler":0,
			"source":0
		},
		{
			"sampler":0,
			"source":1
		},
		{
			"sampler":0,
			"source":2
		},
		{
			"sampler":0,
			"source":3
		},
		{
			"sampler":0,
			"source":4
		}
	],
	"images":[
		{
			"mimeType":"image/png",
			"name":"Wheel_3_baseColor",
			"uri":"Wheel_3_baseColor.png"
		},
		{
			"mimeType":"image/png",
			"name":"Wheel_3_metallicRoughness",
			"uri":"Wheel_3_metallicRoughness.png"
		},
		{
			"mimeType":"image/png",
			"name":"Body_7_baseColor",
			"uri":"Body_7_baseColor.png"
		},
		{
			"mimeType":"image/png",
			"name":"Body_7_metallicRoughness",
			"uri":"Body_7_metallicRoughness.png"
		},
		{
			"mimeType":"image/jpeg",
			"name":"Optics_baseColor",
			"uri":"Optics_baseColor.jpg"
		}
	],
	"accessors":[
		{
			"bufferView":0,
			"componentType":5126,
			"count":228,
			"max":[
				886.4948120117188,
				2403.358154296875,
				1682.13427734375
			],
			"min":[
				-896.8751831054688,
				-1329.3883056640625,
				1139.32177734375
			],
			"type":"VEC3"
		},
		{
			"bufferView":1,
			"componentType":5126,
			"count":228,
			"type":"VEC3"
		},
		{
			"bufferView":2,
			"componentType":5126,
			"count":228,
			"type":"VEC2"
		},
		{
			"bufferView":3,
			"componentType":5123,
			"count":864,
			"type":"SCALAR"
		},
		{
			"bufferView":4,
			"componentType":5126,
			"count":2096,
			"max":[
				993.8277587890625,
				1766.860595703125,
				707.9542236328125
			],
			"min":[
				-1004.2073974609375,
				-2151.686279296875,
				-137.98944091796875
			],
			"type":"VEC3"
		},
		{
			"bufferView":5,
			"componentType":5126,
			"count":2096,
			"type":"VEC3"
		},
		{
			"bufferView":6,
			"componentType":5126,
			"count":2096,
			"type":"VEC2"
		},
		{
			"bufferView":7,
			"componentType":5123,
			"count":6576,
			"type":"SCALAR"
		},
		{
			"bufferView":8,
			"componentType":5126,
			"count":6053,
			"max":[
				1158.11962890625,
				2477.251220703125,
				1812.3671875
			],
			"min":[
				-1168.499267578125,
				-2711.670166015625,
				39.18634033203125
			],
			"type":"VEC3"
		},
		{
			"bufferView":9,
			"componentType":5126,
			"count":6053,
			"type":"VEC3"
		},
		{
			"bufferView":10,
			"componentType":5126,
			"count":6053,
			"type":"VEC2"
		},
		{
			"bufferView":11,
			"componentType":5123,
			"count":15792,
			"type":"SCALAR"
		},
		{
			"bufferView":12,
			"componentType":5126,
			"count":272,
			"max":[
				869.400634765625,
				2338.752197265625,
				1089.0245361328125
			],
			"min":[
				-879.7806396484375,
				-2561.3466796875,
				346.8970642089844
			],
			"type":"VEC3"
		},
		{
			"bufferView":13,
			"componentType":5126,
			"count":272,
			"type":"VEC3"
		},
		{
			"bufferView":14,
			"componentType":5126,
			"count":272,
			"type":"VEC2"
		},
		{
			"bufferView":15,
			"componentType":5123,
			"count":618,
			"type":"SCALAR"
		}
	],
	"bufferViews":[
		{
			"buffer":0,
			"byteLength":2736,
			"byteOffset":0,
			"target":34962
		},
		{
			"buffer":0,
			"byteLength":2736,
			"byteOffset":2736,
			"target":34962
		},
		{
			"buffer":0,
			"byteLength":1824,
			"byteOffset":5472,
			"target":34962
		},
		{
			"buffer":0,
			"byteLength":1728,
			"byteOffset":7296,
			"target":34963
		},
		{
			"buffer":0,
			"byteLength":25152,
			"byteOffset":9024,
			"target":34962
		},
		{
			"buffer":0,
			"byteLength":25152,
			"byteOffset":34176,
			"target":34962
		},
		{
			"buffer":0,
			"byteLength":16768,
			"byteOffset":59328,
			"target":34962
		},
		{
			"buffer":0,
			"byteLength":13152,
			"byteOffset":76096,
			"target":34963
		},
		{
			"buffer":0,
			"byteLength":72636,
			"byteOffset":89248,
			"target":34962
		},
		{
			"buffer":0,
			"byteLength":72636,
			"byteOffset":161884,
			"target":34962
		},
		{
			"buffer":0,
			"byteLength":48424,
			"byteOffset":234520,
			"target":34962
		},
		{
			"buffer":0,
			"byteLength":31584,
			"byteOffset":282944,
			"target":34963
		},
		{
			"buffer":0,
			"byteLength":3264,
			"byteOffset":314528,
			"target":34962
		},
		{
			"buffer":0,
			"byteLength":3264,
			"byteOffset":317792,
			"target":34962
		},
		{
			"buffer":0,
			"byteLength":2176,
			"byteOffset":321056,
			"target":34962
		},
		{
			"buffer":0,
			"byteLength":1236,
			"byteOffset":323232,
			"target":34963
		}
	],
	"samplers":[
		{
			"magFilter":9729,
			"minFilter":9987
		}
	],
	"buffers":[
		{
			"byteLength":324468,
			"uri":"md.bin"
		}
	]
}
